<?xml version="1.0" standalone="no"?>
<!DOCTYPE svg PUBLIC "-//W3C//DTD SVG 20010904//EN"
 "http://www.w3.org/TR/2001/REC-SVG-20010904/DTD/svg10.dtd">
<svg version="1.0" xmlns="http://www.w3.org/2000/svg"
 width="700.000000pt" height="700.000000pt" viewBox="0 0 700.000000 700.000000"
 preserveAspectRatio="xMidYMid meet">
<metadata>
Created by potrace 1.14, written by Peter Selinger 2001-2017
</metadata>
<g transform="translate(0.000000,700.000000) scale(0.100000,-0.100000)"
fill="#000000" stroke="none">
<path d="M2387 6989 c-106 -25 -192 -99 -221 -192 -20 -62 -36 -449 -35 -852
l0 -260 347 -425 347 -425 7 505 c5 278 7 715 5 971 l-2 465 -30 59 c-23 44
-44 69 -84 97 -83 58 -226 82 -334 57z"/>
<path d="M3229 6986 c-137 -53 -207 -131 -244 -273 -13 -49 -15 -197 -15
-1014 l0 -958 29 -20 c16 -12 33 -21 39 -21 24 0 199 202 308 355 218 307 321
468 333 525 17 81 15 1036 -3 1121 -38 179 -165 291 -336 296 -45 2 -89 -3
-111 -11z"/>
<path d="M4074 6990 c-145 -31 -228 -116 -254 -260 -15 -81 -7 -263 26 -610
13 -140 24 -283 24 -318 0 -80 16 -115 76 -174 64 -62 132 -91 209 -91 92 0
160 37 272 149 l92 93 3 228 c5 384 -6 731 -26 782 -33 89 -101 156 -190 187
-51 18 -177 26 -232 14z"/>
<path d="M4901 6989 c-105 -32 -194 -127 -232 -249 -27 -86 -53 -509 -46 -740
9 -281 56 -424 343 -1049 l138 -301 61 0 60 0 47 98 c86 177 81 145 88 562 9
478 2 1297 -11 1374 -22 126 -102 237 -204 285 -57 27 -186 38 -244 20z"/>
<path d="M5745 6990 c-113 -24 -198 -92 -237 -188 l-23 -57 -3 -888 -2 -888
42 26 c73 45 169 86 220 94 102 17 200 -24 340 -140 l83 -69 7 112 c4 62 8
487 10 943 l3 830 -24 53 c-29 65 -104 134 -169 157 -55 19 -190 28 -247 15z"/>
<path d="M1663 6969 c-100 -19 -319 -145 -452 -259 -52 -45 -122 -100 -155
-122 -205 -137 -302 -258 -342 -428 -9 -38 -13 -137 -14 -331 l0 -276 236
-238 c258 -258 295 -286 358 -265 48 16 78 52 147 180 77 144 136 227 202 285
95 84 197 130 319 143 l63 7 3 280 c4 321 -12 646 -34 731 -20 76 -55 135
-122 206 -75 79 -130 102 -209 87z"/>
<path d="M1940 5579 c-128 -24 -282 -158 -385 -334 -62 -106 -94 -154 -132
-195 l-23 -26 -10 -594 c-5 -327 -10 -642 -10 -700 l0 -105 178 2 c97 2 201 6
230 9 l52 5 0 345 0 344 53 0 c28 0 69 -3 90 -6 l37 -7 0 -711 0 -712 -87 -72
-88 -72 -5 297 -5 298 -90 6 c-49 4 -156 10 -237 14 l-148 7 0 -245 0 -246
-95 65 -95 65 -1 132 c0 73 -4 515 -8 982 l-7 850 -190 193 -189 193 -65 -17
c-36 -10 -68 -20 -73 -24 -4 -3 4 -105 18 -226 32 -273 45 -590 38 -889 -6
-259 9 -574 32 -692 27 -129 67 -203 155 -286 42 -40 124 -106 183 -147 l107
-74 0 -853 0 -853 101 0 102 0 -5 260 -4 260 71 0 c40 0 147 -3 238 -7 l167
-6 0 -254 0 -253 96 0 96 0 -6 792 -7 793 60 70 c34 39 64 80 67 92 3 12 -4
64 -17 115 -32 135 -33 320 0 443 47 180 130 368 222 501 102 148 218 224 341
224 92 0 161 -16 243 -56 215 -105 337 -358 360 -744 16 -265 -49 -525 -174
-693 l-41 -56 55 -26 c62 -29 135 -45 206 -45 l49 0 0 -694 0 -694 43 -6 c23
-3 66 -9 96 -12 l53 -7 -8 504 c-5 277 -9 602 -9 722 l0 219 85 27 c92 30 170
66 170 80 0 9 -267 850 -275 866 -3 6 -2 -211 1 -481 l6 -491 -48 -7 c-26 -3
-62 -6 -80 -6 l-34 0 0 789 0 788 71 7 c39 4 75 4 79 -1 4 -4 103 -327 220
-718 117 -390 216 -716 220 -724 4 -7 5 490 2 1104 l-5 1118 64 -36 64 -36 6
-533 c4 -293 10 -822 14 -1175 l7 -642 44 -7 c81 -12 74 -92 74 837 l0 831
330 -7 c182 -4 356 -10 387 -14 l57 -6 38 -120 c21 -66 38 -123 38 -127 0 -5
-146 -8 -325 -8 l-325 0 0 -275 0 -275 78 0 c44 0 167 -3 274 -7 l196 -6 -5
-116 c-3 -64 -6 -117 -7 -118 -1 -1 -115 -10 -254 -19 l-252 -18 0 -156 0
-157 137 -6 c75 -4 215 -7 311 -7 l175 0 -7 -80 c-3 -44 -3 -80 0 -80 32 0
247 164 255 194 3 12 12 116 19 231 l13 210 -137 465 c-75 256 -139 474 -142
484 -6 18 -2 19 56 13 35 -3 66 -10 69 -16 3 -5 53 -163 111 -350 57 -188 107
-337 111 -333 10 9 511 1273 507 1277 -40 32 -117 76 -142 80 -57 11 -162 -27
-266 -98 -25 -17 -109 -93 -186 -168 -79 -78 -153 -141 -168 -145 -100 -25
-163 61 -430 591 -86 171 -170 328 -187 348 -45 55 -72 49 -127 -31 -26 -37
-61 -72 -86 -87 -151 -88 -377 -32 -473 118 l-24 38 -38 -33 c-85 -74 -372
-426 -494 -608 -126 -187 -246 -272 -381 -271 -134 1 -237 94 -380 342 -183
315 -299 470 -408 542 -80 52 -152 70 -228 56z m-465 -2799 c134 -121 177
-132 301 -76 l51 23 6 -180 c4 -99 7 -260 7 -357 l0 -177 -52 -7 c-29 -3 -132
-6 -229 -6 l-176 0 -9 435 c-5 239 -7 435 -4 435 3 0 50 -41 105 -90z"/>
<path d="M5945 4295 c-109 -220 -254 -517 -324 -660 l-126 -260 18 -225 19
-225 43 -65 c23 -36 57 -97 74 -136 39 -91 85 -233 77 -241 -3 -3 -173 -10
-378 -14 -205 -5 -404 -10 -443 -11 l-69 -3 2 -50 c1 -27 5 -67 8 -87 l6 -38
256 -2 257 -3 6 -400 c4 -220 7 -439 8 -487 l1 -88 76 0 77 0 -7 495 -8 495
119 0 119 0 12 -95 c7 -52 30 -184 51 -292 65 -322 77 -563 36 -718 -38 -142
-149 -462 -182 -522 -40 -72 -40 -68 -7 -291 28 -189 77 -301 149 -335 78 -37
220 -44 328 -16 58 15 110 69 156 162 49 101 71 184 71 272 0 64 -3 73 -65
184 -132 239 -160 343 -151 571 12 315 25 1029 36 1915 14 1105 6 1467 -34
1542 -15 28 -15 26 -211 -372z m79 -1847 c3 -18 10 -60 16 -92 5 -33 10 -61
10 -63 0 -2 -65 -3 -144 -3 l-144 0 -11 75 c-6 42 -11 82 -11 90 0 16 36 21
182 23 l97 2 5 -32z"/>
<path d="M2597 4039 c-20 -5 -56 -18 -78 -30 -181 -92 -295 -439 -230 -700 39
-159 176 -382 278 -452 116 -80 299 -43 416 83 94 101 129 232 131 485 1 126
-3 175 -18 230 -29 109 -89 216 -156 278 -64 60 -100 79 -186 102 -64 17 -100
18 -157 4z"/>
<path d="M2270 1886 l0 -586 429 0 429 0 7 95 c4 53 4 99 1 103 -4 3 -146 8
-316 10 l-310 4 0 103 0 102 103 7 c56 3 173 9 260 12 153 7 157 7 157 29 0
12 3 50 6 84 l7 61 -224 0 c-123 0 -248 3 -276 6 l-53 7 0 178 0 179 331 0
331 0 -6 23 c-3 13 -8 48 -12 79 -4 31 -9 60 -13 66 -4 6 -161 13 -429 18
l-422 7 0 -587z"/>
<path d="M4062 2455 c-118 -26 -226 -90 -283 -168 -27 -36 -30 -48 -25 -85 12
-87 72 -177 157 -232 77 -50 145 -74 328 -115 84 -19 172 -45 195 -57 106 -59
118 -250 19 -301 -47 -24 -144 -40 -206 -33 -123 13 -249 103 -293 211 l-19
45 -65 0 c-99 0 -112 -6 -104 -44 23 -107 145 -256 254 -309 100 -49 211 -70
326 -64 200 11 329 85 364 208 29 99 0 272 -56 347 -55 73 -92 91 -269 132
-312 73 -395 121 -395 230 0 45 23 75 66 86 15 4 83 4 151 1 110 -5 132 -9
186 -35 64 -30 127 -86 153 -134 14 -27 17 -28 104 -28 l90 0 0 28 c0 142
-123 263 -318 313 -90 23 -263 25 -360 4z"/>
</g>
</svg>
