<?xml version="1.0" encoding="UTF-8"?>
<svg width="700pt" height="700pt" version="1.1" viewBox="0 0 700 700" xmlns="http://www.w3.org/2000/svg" xmlns:xlink="http://www.w3.org/1999/xlink">
<!-- TODO: Add credit in credits modal -->
 <g>
  <path d="m692.67 186.88c0.40625 0.57422 0.78516 1.1758 1.1367 1.8047 5.2891 9.5469 1.8359 21.566-7.707 26.855-9.5469 5.2852-21.566 1.8359-26.855-7.707-0.10938-0.19531-0.19141-0.39453-0.28906-0.59375l-20.289 16.305-1.9727-2.2109 16.027-14.297 13.09-11.676 3.1289 3.8555-7.2148 5.7969c4.7344 6.9023 14.023 9.2031 21.492 5.0703 7.625-4.2266 10.551-13.621 6.8672-21.391-0.17578 0.10547-0.33594 0.22266-0.51562 0.32031-3.707 2.0547-7.7734 2.8164-11.691 2.4453 2.0352-0.26953 4.0586-0.90234 5.9609-1.957 8.1719-4.5273 11.129-14.82 6.6016-22.996-4.5273-8.1719-14.824-11.125-22.996-6.5977-3.875 2.1484-6.5625 5.6016-7.8477 9.5 0.21484-2.2617 0.82031-4.4648 1.7656-6.5273-4.2734-1.5078-9.1445-1.2656-13.422 1.1055-7.9336 4.3945-10.801 14.387-6.4062 22.324 1.5273 2.7578 3.7383 4.8867 6.2969 6.3281l5.1172-7.875 4.1484 2.7266-22.91 31.582-2.3984-1.7422 13.332-20.52c-3.7969-1.793-7.0938-4.7305-9.2852-8.6797-5.5508-10.02-1.9297-22.645 8.0938-28.199 6.2227-3.4492 13.449-3.3516 19.363-0.38672 1.6992-2.3828 3.9219-4.4414 6.6484-5.9531 9.7852-5.418 22.105-1.8867 27.527 7.8984 4.7969 8.6562 2.5664 19.301-4.7969 25.391z"/>
  <path d="m609.14 185.55c-2.7344-5.6523-20.309-20.742-35.777-33.34 9.6562-5.6719 16.801-13.016 14.156-18.629-6.3203-13.41-22.535-19.051-36.215-12.605-5.4219 2.5547-9.6094 6.6406-12.32 11.461l-67.02-2.8047-46.707-6.4414s-30.258-26.039-49.93-28.992c-19.672-2.9531-99.129 30.066-99.129 30.066 0.003906 0.003906-81.254-34.891-160.17-15.566-48.137 11.789-71.105 57.734-81.703 91.781-7.2148 4.5938-14.605 11.715-20.906 20.715-14.543 20.766-17.77 43.598-7.2031 50.996 5.2656 3.6875 12.965 2.8398 21.16-1.5-3.582 9.0898-5.5703 18.98-5.5703 29.34 0 2.4062 0.125 4.7852 0.33203 7.1367-0.53906 3.582-0.29688 7.3359 0.89844 11.016l54.594 168.12c3.2539 10.023 12.586 16.699 22.965 16.699 0.71484 0 1.4297-0.03125 2.1484-0.09375 11.215-0.99609 20.262-9.6094 21.797-20.766l12.691-92.078 38.211 97.887c3.6602 9.3789 12.676 15.375 22.492 15.375 1.2461 0 2.5-0.097657 3.7656-0.29297 11.207-1.7617 19.68-11.086 20.363-22.41l5.4531-90.301c69.145-1.3164 99.926-13.672 99.926-13.672l33.785-10.867 49.863 122.74c3.7695 9.2812 12.742 15.07 22.375 15.07 1.9766 0 3.9805-0.24219 5.9727-0.75 11.699-2.9805 19.402-14.141 18.039-26.137l-22.543-198.64c-0.10938-0.95703-0.28906-1.8906-0.5-2.8086l2.3281-16.23 4.0781-14.988c3.0234 24.922 8.043 53.117 16.324 81.559 0 0 41.492-40.355 63.184-40.672 21.688-0.32031 62.812 25.77 75.621 26.707 4.9961 0.36719 14.754-3.5078 24.77-9.2773l-5.3789-21.508-23.895 7.6016-3.2852-19.711-18.215 3.6406-1.2656-6.3164 24.738-4.9492 3.1562 18.941 23.348-7.4297 6.5547 26.215c13.633-8.793 26.137-20.324 25.922-28.609-0.39453-15.496-42.289-31.211-45.164-39.52-2.8711-8.3125 6.9102-34.773 1.8867-45.164zm-14.074 18.09c-2.8711 5.5273-9.6719 7.6797-15.199 4.8086-5.5273-2.8711-7.6758-9.6758-4.8047-15.199 2.8672-5.5273 22.875 4.8672 20.004 10.391z"/>
  <use y="533.234375" xlink:href="#u"/>
  <use x="7.25" y="533.234375" xlink:href="#e"/>
  <use x="12.125" y="533.234375" xlink:href="#b"/>
  <use x="18.824219" y="533.234375" xlink:href="#d"/>
  <use x="25.492188" y="533.234375" xlink:href="#c"/>
  <use x="30.21875" y="533.234375" xlink:href="#b"/>
  <use x="36.917969" y="533.234375" xlink:href="#k"/>
  <use x="47.429688" y="533.234375" xlink:href="#j"/>
  <use x="54.503906" y="533.234375" xlink:href="#g"/>
  <use x="64.386719" y="533.234375" xlink:href="#i"/>
  <use x="72.496094" y="533.234375" xlink:href="#d"/>
  <use x="79.164062" y="533.234375" xlink:href="#f"/>
  <use x="89.636719" y="533.234375" xlink:href="#t"/>
  <use x="97.292969" y="533.234375" xlink:href="#h"/>
  <use x="104.328125" y="533.234375" xlink:href="#a"/>
  <use x="111.117188" y="533.234375" xlink:href="#a"/>
  <use x="117.90625" y="533.234375" xlink:href="#f"/>
  <use x="128.378906" y="533.234375" xlink:href="#s"/>
  <use x="134.675781" y="533.234375" xlink:href="#d"/>
  <use x="141.34375" y="533.234375" xlink:href="#g"/>
  <use y="543.117188" xlink:href="#r"/>
  <use x="4.296875" y="543.117188" xlink:href="#e"/>
  <use x="9.171875" y="543.117188" xlink:href="#a"/>
  <use x="15.960938" y="543.117188" xlink:href="#q"/>
  <use x="29.695313" y="543.117188" xlink:href="#c"/>
  <use x="34.417969" y="543.117188" xlink:href="#h"/>
  <use x="41.453125" y="543.117188" xlink:href="#b"/>
  <use x="51.59375" y="543.117188" xlink:href="#p"/>
  <use x="59.863281" y="543.117188" xlink:href="#a"/>
  <use x="66.652344" y="543.117188" xlink:href="#o"/>
  <use x="73.6875" y="543.117188" xlink:href="#f"/>
  <use x="84.160156" y="543.117188" xlink:href="#n"/>
  <use x="91.402344" y="543.117188" xlink:href="#e"/>
  <use x="96.277344" y="543.117188" xlink:href="#a"/>
  <use x="103.0625" y="543.117188" xlink:href="#m"/>
  <use x="106.453125" y="543.117188" xlink:href="#b"/>
  <use x="113.152344" y="543.117188" xlink:href="#l"/>
  <use x="119.007813" y="543.117188" xlink:href="#c"/>
 </g>
</svg>
