<?xml version="1.0" encoding="UTF-8"?>
<svg width="700pt" height="700pt" version="1.1" viewBox="0 0 700 700" xmlns="http://www.w3.org/2000/svg" xmlns:xlink="http://www.w3.org/1999/xlink">
 <defs>
  <symbol id="u" overflow="visible">
   <path d="m6.6094-0.39062c-0.33594 0.17969-0.6875 0.30859-1.0625 0.39062-0.36719 0.09375-0.75 0.14062-1.1562 0.14062-1.1992 0-2.1523-0.33203-2.8594-1-0.69922-0.67578-1.0469-1.5859-1.0469-2.7344 0-1.1445 0.34766-2.0508 1.0469-2.7188 0.70703-0.67578 1.6602-1.0156 2.8594-1.0156 0.40625 0 0.78906 0.046875 1.1562 0.14062 0.375 0.085938 0.72656 0.21484 1.0625 0.39062v1.5c-0.34375-0.23828-0.68359-0.41016-1.0156-0.51562-0.33594-0.11328-0.68359-0.17188-1.0469-0.17188-0.66797 0-1.1953 0.21484-1.5781 0.64062-0.375 0.42969-0.5625 1.0117-0.5625 1.75 0 0.74219 0.1875 1.3242 0.5625 1.75 0.38281 0.42969 0.91016 0.64062 1.5781 0.64062 0.36328 0 0.71094-0.050781 1.0469-0.15625 0.33203-0.11328 0.67188-0.28906 1.0156-0.53125z"/>
  </symbol>
  <symbol id="e" overflow="visible">
   <path d="m4.8438-3.9375c-0.15625-0.0625-0.30859-0.10938-0.45312-0.14062-0.14844-0.039063-0.29688-0.0625-0.45312-0.0625-0.4375 0-0.77734 0.14844-1.0156 0.4375-0.24219 0.28125-0.35938 0.6875-0.35938 1.2188v2.4844h-1.7344v-5.4062h1.7344v0.89062c0.21875-0.35156 0.46875-0.60938 0.75-0.76562 0.28906-0.16406 0.64062-0.25 1.0469-0.25 0.050781 0 0.10938 0.007812 0.17188 0.015625 0.070312 0 0.17578 0.011719 0.3125 0.03125z"/>
  </symbol>
  <symbol id="b" overflow="visible">
   <path d="m6.2188-2.7188v0.5h-4.0312c0.039062 0.40625 0.1875 0.71484 0.4375 0.92188 0.25 0.19922 0.59766 0.29688 1.0469 0.29688 0.36328 0 0.73438-0.050781 1.1094-0.15625 0.38281-0.11328 0.78125-0.28125 1.1875-0.5v1.3281c-0.40625 0.15625-0.82031 0.27344-1.2344 0.34375-0.40625 0.082031-0.8125 0.125-1.2188 0.125-0.98047 0-1.7422-0.24219-2.2812-0.73438-0.54297-0.5-0.8125-1.2031-0.8125-2.1094 0-0.875 0.26562-1.5625 0.79688-2.0625 0.53125-0.50781 1.2656-0.76562 2.2031-0.76562 0.84375 0 1.5195 0.25781 2.0312 0.76562 0.50781 0.51172 0.76562 1.1953 0.76562 2.0469zm-1.7656-0.5625c0-0.33203-0.10156-0.59766-0.29688-0.79688-0.1875-0.20703-0.4375-0.3125-0.75-0.3125-0.33594 0-0.60547 0.10156-0.8125 0.29688-0.21094 0.1875-0.33984 0.46094-0.39062 0.8125z"/>
  </symbol>
  <symbol id="d" overflow="visible">
   <path d="m3.25-2.4375c-0.36719 0-0.63672 0.0625-0.8125 0.1875-0.17969 0.125-0.26562 0.30859-0.26562 0.54688 0 0.21875 0.070313 0.39062 0.21875 0.51562 0.14453 0.125 0.34766 0.1875 0.60938 0.1875 0.32031 0 0.59375-0.11328 0.8125-0.34375 0.21875-0.23828 0.32812-0.53516 0.32812-0.89062v-0.20312zm2.6406-0.64062v3.0781h-1.75v-0.79688c-0.23047 0.32422-0.49219 0.5625-0.78125 0.71875-0.28125 0.14453-0.63281 0.21875-1.0469 0.21875-0.5625 0-1.0234-0.16016-1.375-0.48438-0.34375-0.33203-0.51562-0.75781-0.51562-1.2812 0-0.625 0.21875-1.082 0.65625-1.375 0.4375-0.30078 1.1172-0.45312 2.0469-0.45312h1.0156v-0.14062c0-0.26953-0.10938-0.46875-0.32812-0.59375-0.21094-0.13281-0.54297-0.20312-1-0.20312-0.36719 0-0.71094 0.042969-1.0312 0.125-0.3125 0.074219-0.60938 0.18359-0.89062 0.32812v-1.3125c0.375-0.09375 0.74219-0.16016 1.1094-0.20312 0.375-0.050781 0.75-0.078125 1.125-0.078125 0.97656 0 1.6797 0.19531 2.1094 0.57812 0.4375 0.38672 0.65625 1.0117 0.65625 1.875z"/>
  </symbol>
  <symbol id="c" overflow="visible">
   <path d="m2.7188-6.9375v1.5312h1.7812v1.2344h-1.7812v2.2969c0 0.25 0.046875 0.42188 0.14062 0.51562 0.10156 0.085937 0.30078 0.125 0.59375 0.125h0.89062v1.2344h-1.4844c-0.67969 0-1.1641-0.14062-1.4531-0.42188-0.28125-0.28906-0.42188-0.77344-0.42188-1.4531v-2.2969h-0.85938v-1.2344h0.85938v-1.5312z"/>
  </symbol>
  <symbol id="k" overflow="visible">
   <path d="m4.5-4.6094v-2.8906h1.7344v7.5h-1.7344v-0.78125c-0.24219 0.32422-0.50781 0.55859-0.79688 0.70312-0.28125 0.14453-0.60938 0.21875-0.98438 0.21875-0.66797 0-1.2148-0.26562-1.6406-0.79688-0.42969-0.53125-0.64062-1.2109-0.64062-2.0469 0-0.82031 0.21094-1.5 0.64062-2.0312 0.42578-0.53125 0.97266-0.79688 1.6406-0.79688 0.375 0 0.70312 0.078125 0.98438 0.23438 0.28906 0.14844 0.55469 0.375 0.79688 0.6875zm-1.1406 3.5c0.375 0 0.65625-0.13281 0.84375-0.40625 0.19531-0.26953 0.29688-0.66406 0.29688-1.1875 0-0.50781-0.10156-0.89844-0.29688-1.1719-0.1875-0.26953-0.46875-0.40625-0.84375-0.40625-0.36719 0-0.64844 0.13672-0.84375 0.40625-0.1875 0.27344-0.28125 0.66406-0.28125 1.1719 0 0.52344 0.09375 0.91797 0.28125 1.1875 0.19531 0.27344 0.47656 0.40625 0.84375 0.40625z"/>
  </symbol>
  <symbol id="j" overflow="visible">
   <path d="m3.7031-1.1094c0.36328 0 0.64453-0.13281 0.84375-0.40625 0.19531-0.26953 0.29688-0.66406 0.29688-1.1875 0-0.50781-0.10156-0.89844-0.29688-1.1719-0.19922-0.26953-0.48047-0.40625-0.84375-0.40625-0.36719 0-0.64844 0.13672-0.84375 0.40625-0.19922 0.27344-0.29688 0.66406-0.29688 1.1719 0 0.52344 0.097656 0.91797 0.29688 1.1875 0.19531 0.27344 0.47656 0.40625 0.84375 0.40625zm-1.1406-3.5c0.22656-0.3125 0.48828-0.53906 0.78125-0.6875 0.28906-0.15625 0.625-0.23438 1-0.23438 0.66406 0 1.2109 0.26562 1.6406 0.79688 0.42578 0.53125 0.64062 1.2109 0.64062 2.0312 0 0.83594-0.21484 1.5156-0.64062 2.0469-0.42969 0.53125-0.97656 0.79688-1.6406 0.79688-0.375 0-0.71094-0.074219-1-0.21875-0.29297-0.15625-0.55469-0.39062-0.78125-0.70312v0.78125h-1.7344v-7.5h1.7344z"/>
  </symbol>
  <symbol id="g" overflow="visible">
   <path d="m0.125-5.4062h1.7188l1.4531 3.6719 1.2344-3.6719h1.7344l-2.2812 5.9219c-0.23047 0.59375-0.49609 1.0078-0.79688 1.25-0.30469 0.23828-0.70312 0.35938-1.2031 0.35938h-1v-1.125h0.54688c0.28906 0 0.50391-0.046875 0.64062-0.14062 0.13281-0.09375 0.23828-0.26172 0.3125-0.5l0.046875-0.15625z"/>
  </symbol>
  <symbol id="i" overflow="visible">
   <path d="m7.375-0.53125c-0.46094 0.21875-0.9375 0.38672-1.4375 0.5-0.5 0.11328-1.0156 0.17188-1.5469 0.17188-1.1992 0-2.1523-0.33203-2.8594-1-0.69922-0.67578-1.0469-1.5859-1.0469-2.7344 0-1.1562 0.35156-2.0664 1.0625-2.7344 0.71875-0.66406 1.7031-1 2.9531-1 0.47656 0 0.9375 0.046875 1.375 0.14062 0.4375 0.085938 0.84766 0.21484 1.2344 0.39062v1.5c-0.39844-0.22656-0.79688-0.39844-1.2031-0.51562-0.39844-0.11328-0.79297-0.17188-1.1875-0.17188-0.74219 0-1.3125 0.21094-1.7188 0.625-0.39844 0.40625-0.59375 0.99609-0.59375 1.7656 0 0.76172 0.19141 1.3516 0.57812 1.7656 0.38281 0.41797 0.9375 0.625 1.6562 0.625 0.1875 0 0.36328-0.007813 0.53125-0.03125 0.16406-0.03125 0.31641-0.070313 0.45312-0.125v-1.3906h-1.1406v-1.25h2.8906z"/>
  </symbol>
  <symbol id="f" overflow="visible">
   <path d="m6.2656-3.2812v3.2812h-1.75v-2.5156c0-0.46875-0.011719-0.78906-0.03125-0.96875-0.023437-0.17578-0.054687-0.30469-0.09375-0.39062-0.074219-0.11328-0.16797-0.20312-0.28125-0.26562-0.11719-0.0625-0.24609-0.09375-0.39062-0.09375-0.36719 0-0.65234 0.14062-0.85938 0.42188-0.19922 0.28125-0.29688 0.66797-0.29688 1.1562v2.6562h-1.7344v-5.4062h1.7344v0.79688c0.25781-0.3125 0.53516-0.53906 0.82812-0.6875 0.28906-0.15625 0.61328-0.23438 0.96875-0.23438 0.625 0 1.0977 0.19531 1.4219 0.57812 0.32031 0.375 0.48438 0.93359 0.48438 1.6719z"/>
  </symbol>
  <symbol id="t" overflow="visible">
   <path d="m0.90625-7.2031h1.8594v2.625l2.6719-2.625h2.1562l-3.4688 3.4062 3.8281 3.7969h-2.3281l-2.8594-2.8281v2.8281h-1.8594z"/>
  </symbol>
  <symbol id="h" overflow="visible">
   <path d="m6.2656-3.2812v3.2812h-1.75v-2.5c0-0.47656-0.011719-0.80469-0.03125-0.98438-0.023437-0.17578-0.054687-0.30469-0.09375-0.39062-0.074219-0.11328-0.16797-0.20312-0.28125-0.26562-0.11719-0.0625-0.24609-0.09375-0.39062-0.09375-0.36719 0-0.65234 0.14062-0.85938 0.42188-0.19922 0.28125-0.29688 0.66797-0.29688 1.1562v2.6562h-1.7344v-7.5h1.7344v2.8906c0.25781-0.3125 0.53516-0.53906 0.82812-0.6875 0.28906-0.15625 0.61328-0.23438 0.96875-0.23438 0.625 0 1.0977 0.19531 1.4219 0.57812 0.32031 0.375 0.48438 0.93359 0.48438 1.6719z"/>
  </symbol>
  <symbol id="a" overflow="visible">
   <path d="m3.4062-4.2969c-0.38672 0-0.68359 0.14062-0.89062 0.42188-0.19922 0.27344-0.29688 0.66406-0.29688 1.1719 0 0.52344 0.097656 0.92188 0.29688 1.2031 0.20703 0.27344 0.50391 0.40625 0.89062 0.40625 0.375 0 0.66016-0.13281 0.85938-0.40625 0.19531-0.28125 0.29688-0.67969 0.29688-1.2031 0-0.50781-0.10156-0.89844-0.29688-1.1719-0.19922-0.28125-0.48438-0.42188-0.85938-0.42188zm0-1.2344c0.92578 0 1.6484 0.25 2.1719 0.75 0.51953 0.5 0.78125 1.1953 0.78125 2.0781 0 0.89844-0.26172 1.5938-0.78125 2.0938-0.52344 0.5-1.2461 0.75-2.1719 0.75-0.9375 0-1.6719-0.25-2.2031-0.75-0.52344-0.5-0.78125-1.1953-0.78125-2.0938 0-0.88281 0.25781-1.5781 0.78125-2.0781 0.53125-0.5 1.2656-0.75 2.2031-0.75z"/>
  </symbol>
  <symbol id="s" overflow="visible">
   <path d="m0.90625-7.2031h1.8594v5.7969h3.25v1.4062h-5.1094z"/>
  </symbol>
  <symbol id="r" overflow="visible">
   <path d="m4.3906-7.5v1.125h-0.96875c-0.24219 0-0.41406 0.046875-0.51562 0.14062-0.09375 0.085937-0.14062 0.23438-0.14062 0.45312v0.375h1.4844v1.2344h-1.4844v4.1719h-1.7188v-4.1719h-0.85938v-1.2344h0.85938v-0.375c0-0.58203 0.16016-1.0156 0.48438-1.2969 0.33203-0.28125 0.84375-0.42188 1.5312-0.42188z"/>
  </symbol>
  <symbol id="q" overflow="visible">
   <path d="m5.8281-4.5c0.21875-0.33203 0.47656-0.58594 0.78125-0.76562 0.30078-0.17578 0.63281-0.26562 1-0.26562 0.61328 0 1.082 0.19531 1.4062 0.57812 0.33203 0.375 0.5 0.93359 0.5 1.6719v3.2812h-1.75v-2.8125c0.007813-0.039062 0.015625-0.082031 0.015625-0.125v-0.20312c0-0.38281-0.058594-0.66016-0.17188-0.82812-0.11719-0.17578-0.29688-0.26562-0.54688-0.26562-0.32422 0-0.57422 0.13672-0.75 0.40625-0.17969 0.27344-0.27344 0.66406-0.28125 1.1719v2.6562h-1.7344v-2.8125c0-0.60156-0.054687-0.98828-0.15625-1.1562-0.10547-0.17578-0.28906-0.26562-0.54688-0.26562-0.33594 0-0.58984 0.14062-0.76562 0.42188-0.17969 0.27344-0.26562 0.65625-0.26562 1.1562v2.6562h-1.75v-5.4062h1.75v0.79688c0.20703-0.30078 0.44531-0.53125 0.71875-0.6875 0.28125-0.15625 0.58203-0.23438 0.90625-0.23438 0.375 0 0.70312 0.09375 0.98438 0.28125 0.28906 0.17969 0.50781 0.42969 0.65625 0.75z"/>
  </symbol>
  <symbol id="p" overflow="visible">
   <path d="m0.90625-7.2031h2.0781l2.6094 4.9375v-4.9375h1.7656v7.2031h-2.0781l-2.6094-4.9375v4.9375h-1.7656z"/>
  </symbol>
  <symbol id="o" overflow="visible">
   <path d="m0.76562-2.1094v-3.2969h1.7344v0.54688 1.1094 0.875c0 0.4375 0.007812 0.75 0.03125 0.9375 0.019531 0.1875 0.054688 0.32812 0.10938 0.42188 0.070313 0.11719 0.16406 0.20312 0.28125 0.26562 0.11328 0.054688 0.24219 0.078125 0.39062 0.078125 0.36328 0 0.64453-0.13281 0.84375-0.40625 0.20703-0.28125 0.3125-0.66406 0.3125-1.1562v-2.6719h1.7344v5.4062h-1.7344v-0.78125c-0.26172 0.3125-0.53906 0.54688-0.82812 0.70312-0.28125 0.14453-0.60156 0.21875-0.95312 0.21875-0.625 0-1.1055-0.1875-1.4375-0.5625-0.32422-0.38281-0.48438-0.94531-0.48438-1.6875z"/>
  </symbol>
  <symbol id="n" overflow="visible">
   <path d="m0.90625-7.2031h3.0781c0.91406 0 1.6172 0.20312 2.1094 0.60938 0.48828 0.40625 0.73438 0.99219 0.73438 1.75 0 0.75-0.24609 1.3281-0.73438 1.7344-0.49219 0.40625-1.1953 0.60938-2.1094 0.60938h-1.2188v2.5h-1.8594zm1.8594 1.3438v2.0156h1.0312c0.35156 0 0.62891-0.085938 0.82812-0.26562 0.19531-0.17578 0.29688-0.42188 0.29688-0.73438 0-0.32031-0.10156-0.57031-0.29688-0.75-0.19922-0.17578-0.47656-0.26562-0.82812-0.26562z"/>
  </symbol>
  <symbol id="m" overflow="visible">
   <path d="m0.82812-5.4062h1.7344v5.3125c0 0.71875-0.17969 1.2656-0.53125 1.6406-0.34375 0.38281-0.84375 0.57812-1.5 0.57812h-0.85938v-1.125h0.29688c0.33203 0 0.55469-0.078125 0.67188-0.23438 0.125-0.14844 0.1875-0.43359 0.1875-0.85938zm0-2.0938h1.7344v1.4062h-1.7344z"/>
  </symbol>
  <symbol id="l" overflow="visible">
   <path d="m5.1875-5.2344v1.4062c-0.23047-0.15625-0.46484-0.26953-0.70312-0.34375-0.24219-0.082031-0.48438-0.125-0.73438-0.125-0.48047 0-0.85547 0.14062-1.125 0.42188-0.27344 0.28125-0.40625 0.67188-0.40625 1.1719 0 0.51172 0.13281 0.90625 0.40625 1.1875 0.26953 0.28125 0.64453 0.42188 1.125 0.42188 0.26953 0 0.52344-0.035156 0.76562-0.10938 0.25-0.082031 0.47266-0.20703 0.67188-0.375v1.4219c-0.27344 0.09375-0.54688 0.16406-0.82812 0.21875-0.27344 0.050781-0.54688 0.078125-0.82812 0.078125-0.96875 0-1.7305-0.25-2.2812-0.75-0.55469-0.5-0.82812-1.1953-0.82812-2.0938 0-0.88281 0.27344-1.5781 0.82812-2.0781 0.55078-0.5 1.3125-0.75 2.2812-0.75 0.28125 0 0.55469 0.027344 0.82812 0.078125 0.28125 0.054687 0.55469 0.125 0.82812 0.21875z"/>
  </symbol>
 </defs>
 <g>
  <path d="m692.67 186.88c0.40625 0.57422 0.78516 1.1758 1.1367 1.8047 5.2891 9.5469 1.8359 21.566-7.707 26.855-9.5469 5.2852-21.566 1.8359-26.855-7.707-0.10938-0.19531-0.19141-0.39453-0.28906-0.59375l-20.289 16.305-1.9727-2.2109 16.027-14.297 13.09-11.676 3.1289 3.8555-7.2148 5.7969c4.7344 6.9023 14.023 9.2031 21.492 5.0703 7.625-4.2266 10.551-13.621 6.8672-21.391-0.17578 0.10547-0.33594 0.22266-0.51562 0.32031-3.707 2.0547-7.7734 2.8164-11.691 2.4453 2.0352-0.26953 4.0586-0.90234 5.9609-1.957 8.1719-4.5273 11.129-14.82 6.6016-22.996-4.5273-8.1719-14.824-11.125-22.996-6.5977-3.875 2.1484-6.5625 5.6016-7.8477 9.5 0.21484-2.2617 0.82031-4.4648 1.7656-6.5273-4.2734-1.5078-9.1445-1.2656-13.422 1.1055-7.9336 4.3945-10.801 14.387-6.4062 22.324 1.5273 2.7578 3.7383 4.8867 6.2969 6.3281l5.1172-7.875 4.1484 2.7266-22.91 31.582-2.3984-1.7422 13.332-20.52c-3.7969-1.793-7.0938-4.7305-9.2852-8.6797-5.5508-10.02-1.9297-22.645 8.0938-28.199 6.2227-3.4492 13.449-3.3516 19.363-0.38672 1.6992-2.3828 3.9219-4.4414 6.6484-5.9531 9.7852-5.418 22.105-1.8867 27.527 7.8984 4.7969 8.6562 2.5664 19.301-4.7969 25.391z"/>
  <path d="m609.14 185.55c-2.7344-5.6523-20.309-20.742-35.777-33.34 9.6562-5.6719 16.801-13.016 14.156-18.629-6.3203-13.41-22.535-19.051-36.215-12.605-5.4219 2.5547-9.6094 6.6406-12.32 11.461l-67.02-2.8047-46.707-6.4414s-30.258-26.039-49.93-28.992c-19.672-2.9531-99.129 30.066-99.129 30.066 0.003906 0.003906-81.254-34.891-160.17-15.566-48.137 11.789-71.105 57.734-81.703 91.781-7.2148 4.5938-14.605 11.715-20.906 20.715-14.543 20.766-17.77 43.598-7.2031 50.996 5.2656 3.6875 12.965 2.8398 21.16-1.5-3.582 9.0898-5.5703 18.98-5.5703 29.34 0 2.4062 0.125 4.7852 0.33203 7.1367-0.53906 3.582-0.29688 7.3359 0.89844 11.016l54.594 168.12c3.2539 10.023 12.586 16.699 22.965 16.699 0.71484 0 1.4297-0.03125 2.1484-0.09375 11.215-0.99609 20.262-9.6094 21.797-20.766l12.691-92.078 38.211 97.887c3.6602 9.3789 12.676 15.375 22.492 15.375 1.2461 0 2.5-0.097657 3.7656-0.29297 11.207-1.7617 19.68-11.086 20.363-22.41l5.4531-90.301c69.145-1.3164 99.926-13.672 99.926-13.672l33.785-10.867 49.863 122.74c3.7695 9.2812 12.742 15.07 22.375 15.07 1.9766 0 3.9805-0.24219 5.9727-0.75 11.699-2.9805 19.402-14.141 18.039-26.137l-22.543-198.64c-0.10938-0.95703-0.28906-1.8906-0.5-2.8086l2.3281-16.23 4.0781-14.988c3.0234 24.922 8.043 53.117 16.324 81.559 0 0 41.492-40.355 63.184-40.672 21.688-0.32031 62.812 25.77 75.621 26.707 4.9961 0.36719 14.754-3.5078 24.77-9.2773l-5.3789-21.508-23.895 7.6016-3.2852-19.711-18.215 3.6406-1.2656-6.3164 24.738-4.9492 3.1562 18.941 23.348-7.4297 6.5547 26.215c13.633-8.793 26.137-20.324 25.922-28.609-0.39453-15.496-42.289-31.211-45.164-39.52-2.8711-8.3125 6.9102-34.773 1.8867-45.164zm-14.074 18.09c-2.8711 5.5273-9.6719 7.6797-15.199 4.8086-5.5273-2.8711-7.6758-9.6758-4.8047-15.199 2.8672-5.5273 22.875 4.8672 20.004 10.391z"/>
  <use y="533.234375" xlink:href="#u"/>
  <use x="7.25" y="533.234375" xlink:href="#e"/>
  <use x="12.125" y="533.234375" xlink:href="#b"/>
  <use x="18.824219" y="533.234375" xlink:href="#d"/>
  <use x="25.492188" y="533.234375" xlink:href="#c"/>
  <use x="30.21875" y="533.234375" xlink:href="#b"/>
  <use x="36.917969" y="533.234375" xlink:href="#k"/>
  <use x="47.429688" y="533.234375" xlink:href="#j"/>
  <use x="54.503906" y="533.234375" xlink:href="#g"/>
  <use x="64.386719" y="533.234375" xlink:href="#i"/>
  <use x="72.496094" y="533.234375" xlink:href="#d"/>
  <use x="79.164062" y="533.234375" xlink:href="#f"/>
  <use x="89.636719" y="533.234375" xlink:href="#t"/>
  <use x="97.292969" y="533.234375" xlink:href="#h"/>
  <use x="104.328125" y="533.234375" xlink:href="#a"/>
  <use x="111.117188" y="533.234375" xlink:href="#a"/>
  <use x="117.90625" y="533.234375" xlink:href="#f"/>
  <use x="128.378906" y="533.234375" xlink:href="#s"/>
  <use x="134.675781" y="533.234375" xlink:href="#d"/>
  <use x="141.34375" y="533.234375" xlink:href="#g"/>
  <use y="543.117188" xlink:href="#r"/>
  <use x="4.296875" y="543.117188" xlink:href="#e"/>
  <use x="9.171875" y="543.117188" xlink:href="#a"/>
  <use x="15.960938" y="543.117188" xlink:href="#q"/>
  <use x="29.695313" y="543.117188" xlink:href="#c"/>
  <use x="34.417969" y="543.117188" xlink:href="#h"/>
  <use x="41.453125" y="543.117188" xlink:href="#b"/>
  <use x="51.59375" y="543.117188" xlink:href="#p"/>
  <use x="59.863281" y="543.117188" xlink:href="#a"/>
  <use x="66.652344" y="543.117188" xlink:href="#o"/>
  <use x="73.6875" y="543.117188" xlink:href="#f"/>
  <use x="84.160156" y="543.117188" xlink:href="#n"/>
  <use x="91.402344" y="543.117188" xlink:href="#e"/>
  <use x="96.277344" y="543.117188" xlink:href="#a"/>
  <use x="103.0625" y="543.117188" xlink:href="#m"/>
  <use x="106.453125" y="543.117188" xlink:href="#b"/>
  <use x="113.152344" y="543.117188" xlink:href="#l"/>
  <use x="119.007813" y="543.117188" xlink:href="#c"/>
 </g>
</svg>
