<?xml version="1.0" encoding="UTF-8"?>
<svg width="700pt" height="700pt" version="1.1" viewBox="0 0 700 700" xmlns="http://www.w3.org/2000/svg" xmlns:xlink="http://www.w3.org/1999/xlink">
 <g>
  <path d="m552.05 172.7-205.86-131.71c-3.9844-2.6367-9.1992-2.457-12.992 0.44922l-186.14 140c-2.8984 2.2773-4.4883 5.8398-4.2539 9.5195l5.6016 168h-0.003906c0.12891 3.4531 1.8438 6.6602 4.6484 8.6797l205.91 148.06c1.9062 1.3828 4.1992 2.125 6.5508 2.1289 2.7578 0.082031 5.4492-0.85156 7.5586-2.6328l174.89-159.71c2.2266-2.0352 3.5391-4.8828 3.6406-7.8945l5.6016-165.09h-0.003906c0.13281-3.9453-1.8281-7.668-5.1523-9.8008zm-211.34-108.7 191.57 122.64-167.16 145.6-196.78-138.43zm-169.9 288.79-4.9297-146.89 194.04 136.13v146.78zm200.48 133.84v-145.04l162.9-141.79-4.9844 142.3zm-35.504-328.11c-2.1094-1.5391-4.5781-2.5039-7.168-2.8008-4.8398-0.76953-9.7227 1.0859-12.824 4.875-5.2656 5.8789-5.2656 13.215 0 22.062 4.8125 6.8164 10.453 13.004 16.801 18.426-1.2109-4.5312-1.2109-9.3008 0-13.832 1.3867-4.5391 3.7344-8.7188 6.8867-12.266 6.7852-8.0508 16.801-12.668 27.328-12.602 11.777 0.13672 23.152 4.3281 32.199 11.875 10.082 7.4961 17.609 17.918 21.559 29.848 3.9766 11.984 1.3438 23.969-8.0078 35.953v-0.003907c-4.6445 6.2773-11.105 10.969-18.508 13.445-7.4062 2.4727-15.391 2.6094-22.875 0.38672-15.711-4.2578-30.199-12.16-42.281-23.07-6.9258-5.6289-13.523-11.652-19.766-18.031-7.2578-7.3867-13.07-16.066-17.137-25.594-2.6289-6.5508-3.5703-13.652-2.7461-20.664 0.98828-7.1484 4.2266-13.797 9.2422-18.984 6.4609-7.6953 15.57-12.691 25.535-14 9.707-0.92578 19.422 1.6602 27.383 7.2812zm43.457 72.801h-0.003906c5.7148 0.54687 11.309-1.8594 14.84-6.3828 1.7148-2.0195 2.8633-4.457 3.3242-7.0664 0.46094-2.6055 0.22266-5.2891-0.69141-7.7734-2.2266-6.1055-6.25-11.395-11.535-15.176-5.043-4.6602-11.52-7.4648-18.367-7.9531-5.2422-0.24609-10.297 1.9688-13.664 5.9922-2.6836 3.1016-4.1016 7.0977-3.9766 11.199 0.77734 7.6602 4.8672 14.598 11.199 18.984 5.2109 4.7188 11.859 7.543 18.871 8.0078z"/>
  <use x="70" y="644" xlink:href="#w"/>
  <use x="90.550781" y="644" xlink:href="#d"/>
  <use x="104.359375" y="644" xlink:href="#b"/>
  <use x="123.347656" y="644" xlink:href="#f"/>
  <use x="142.242188" y="644" xlink:href="#a"/>
  <use x="155.628906" y="644" xlink:href="#b"/>
  <use x="174.617188" y="644" xlink:href="#k"/>
  <use x="204.410156" y="644" xlink:href="#j"/>
  <use x="224.453125" y="644" xlink:href="#i"/>
  <use x="252.453125" y="644" xlink:href="#h"/>
  <use x="270.292969" y="644" xlink:href="#c"/>
  <use x="289.53125" y="644" xlink:href="#e"/>
  <use x="309.460938" y="644" xlink:href="#e"/>
  <use x="329.398438" y="644" xlink:href="#v"/>
  <use x="338.992188" y="644" xlink:href="#b"/>
  <use x="367.734375" y="644" xlink:href="#u"/>
  <use x="386.832031" y="644" xlink:href="#f"/>
  <use x="405.726562" y="644" xlink:href="#t"/>
  <use x="425.769531" y="644" xlink:href="#s"/>
  <use x="442.4375" y="644" xlink:href="#g"/>
  <use x="459.03125" y="644" xlink:href="#c"/>
  <use x="478.269531" y="644" xlink:href="#a"/>
  <use x="491.65625" y="644" xlink:href="#a"/>
  <use x="70" y="672" xlink:href="#r"/>
  <use x="82.183594" y="672" xlink:href="#d"/>
  <use x="95.992188" y="672" xlink:href="#c"/>
  <use x="115.226562" y="672" xlink:href="#q"/>
  <use x="154.152344" y="672" xlink:href="#a"/>
  <use x="167.535156" y="672" xlink:href="#p"/>
  <use x="187.46875" y="672" xlink:href="#b"/>
  <use x="216.207031" y="672" xlink:href="#o"/>
  <use x="239.640625" y="672" xlink:href="#c"/>
  <use x="258.878906" y="672" xlink:href="#n"/>
  <use x="278.8125" y="672" xlink:href="#e"/>
  <use x="308.492188" y="672" xlink:href="#m"/>
  <use x="329.015625" y="672" xlink:href="#d"/>
  <use x="342.820312" y="672" xlink:href="#c"/>
  <use x="362.058594" y="672" xlink:href="#l"/>
  <use x="371.65625" y="672" xlink:href="#b"/>
  <use x="390.648438" y="672" xlink:href="#g"/>
  <use x="407.242188" y="672" xlink:href="#a"/>
 </g>
</svg>
