<?xml version="1.0" encoding="UTF-8"?>
<svg width="700pt" height="700pt" version="1.1" viewBox="0 0 700 700" xmlns="http://www.w3.org/2000/svg" xmlns:xlink="http://www.w3.org/1999/xlink">
 <g>
  <path d="m136.37 150.91h307.36l120.59-72.66h-302.9zm280.19-29.906c11.453 0 25.094 1.8359 25.094 10.578 0 8.7422-13.648 10.578-25.094 10.578-11.445 0-25.094-1.8359-25.094-10.578 0-8.7422 13.648-10.578 25.094-10.578zm-66.555-19.875c11.453 0 25.094 1.832 25.094 10.578 0 8.7422-13.648 10.578-25.094 10.578s-25.094-1.8359-25.094-10.578c0-8.7461 13.641-10.578 25.094-10.578zm-41.441-9.3008c0 8.7461-13.648 10.578-25.094 10.578-11.445 0-25.094-1.8359-25.094-10.578s13.648-10.578 25.094-10.578c11.453 0 25.094 1.832 25.094 10.578z"/>
  <path d="m451.24 475.82 128.36-96.938v-296.1l-128.36 77.344zm73.613-259.64c14.578 0 21.219 25.238 21.219 48.688 0 23.445-6.6406 48.688-21.219 48.688-14.582 0-21.219-25.234-21.219-48.688 0-23.449 6.6406-48.688 21.219-48.688z"/>
  <path d="m439.46 162.69h-319.07v319.07h319.07zm-261.23 291.24c-17.645 0-32.004-14.359-32.004-32.004 0-17.652 14.359-32.008 32.004-32.008 17.652 0 32.008 14.359 32.008 32.008 0.003907 17.645-14.355 32.004-32.008 32.004zm0-197.04c-17.645 0-32.004-14.359-32.004-32.008 0-17.645 14.359-32.004 32.004-32.004 17.652 0 32.008 14.359 32.008 32.004 0.003907 17.648-14.355 32.008-32.008 32.008zm101.7 98.52c-17.652 0-32.008-14.359-32.008-32.008 0-17.645 14.359-32.004 32.008-32.004 17.645 0 32.004 14.359 32.004 32.004 0.003906 17.648-14.352 32.008-32.004 32.008zm101.7 98.516c-17.645 0-32.004-14.359-32.004-32.004 0-17.652 14.359-32.008 32.004-32.008 17.652 0 32.008 14.359 32.008 32.008-0.003906 17.645-14.359 32.004-32.008 32.004zm0-197.04c-17.645 0-32.004-14.359-32.004-32.008 0-17.645 14.359-32.004 32.004-32.004 17.652 0 32.008 14.359 32.008 32.004-0.003906 17.648-14.359 32.008-32.008 32.008z"/>
  <use x="70" y="644" xlink:href="#t"/>
  <use x="90.550781" y="644" xlink:href="#d"/>
  <use x="104.359375" y="644" xlink:href="#b"/>
  <use x="123.347656" y="644" xlink:href="#j"/>
  <use x="142.242188" y="644" xlink:href="#a"/>
  <use x="155.628906" y="644" xlink:href="#b"/>
  <use x="174.617188" y="644" xlink:href="#i"/>
  <use x="204.410156" y="644" xlink:href="#h"/>
  <use x="224.453125" y="644" xlink:href="#g"/>
  <use x="252.453125" y="644" xlink:href="#f"/>
  <use x="274.121094" y="644" xlink:href="#a"/>
  <use x="287.507812" y="644" xlink:href="#e"/>
  <use x="307.4375" y="644" xlink:href="#c"/>
  <use x="326.675781" y="644" xlink:href="#s"/>
  <use x="70" y="672" xlink:href="#r"/>
  <use x="82.183594" y="672" xlink:href="#d"/>
  <use x="95.992188" y="672" xlink:href="#c"/>
  <use x="115.226562" y="672" xlink:href="#q"/>
  <use x="154.152344" y="672" xlink:href="#a"/>
  <use x="167.535156" y="672" xlink:href="#e"/>
  <use x="187.46875" y="672" xlink:href="#b"/>
  <use x="216.207031" y="672" xlink:href="#p"/>
  <use x="239.640625" y="672" xlink:href="#c"/>
  <use x="258.878906" y="672" xlink:href="#o"/>
  <use x="278.8125" y="672" xlink:href="#n"/>
  <use x="308.492188" y="672" xlink:href="#m"/>
  <use x="329.015625" y="672" xlink:href="#d"/>
  <use x="342.820312" y="672" xlink:href="#c"/>
  <use x="362.058594" y="672" xlink:href="#l"/>
  <use x="371.65625" y="672" xlink:href="#b"/>
  <use x="390.648438" y="672" xlink:href="#k"/>
  <use x="407.242188" y="672" xlink:href="#a"/>
 </g>
</svg>
